# xmcd
#
# Track frame offsets:
#	150
#	17007
#	36862
#	52990
#	68685
#	86255
#	106763
#	129140
#	150852
#	169602
#	186657
#	204707
#	224252
#	240529
#	258112
#	273387
#	292179
#	309747
#
# Disc length: 4354 seconds
#
# Revision: 0
# Processed by: cddbd v1.4PL0 Copyright (c) Steve Scherf et al.
# Submitted via: EasyCDDAExtractor 4.6.0.1
#
DISCID=f2110012
DTITLE=Diverse - Oe3 Greatest Hits 01
DYEAR=1900
DGENRE=Misc.
TTITLE0=Queen-You don't fool me
TTITLE1=Seal-Kiss from a Rose
TTITLE2=OMC-How bizarre
TTITLE3=Pretenders-I'll stand by you
TTITLE4=Backstreet Boys-Quit playing games(with my heart)
TTITLE5=Donna Lewis-I love you always forever
TTITLE6=Tears for Fears-Everybody wants to rule the world
TTITLE7=Joe Cocker-Don't let me be missunderstood
TTITLE8=The beautiful South-Rotterdam(or anywhere)
TTITLE9=Tina Turner-On silent wings
TTITLE10=Mr. President-Show me the Way
TTITLE11=Enya-Anywhere is
TTITLE12=Simply Red-Stars
TTITLE13=R.E.M.-Everybody hurts
TTITLE14=Lighthouse Family-Lifted
TTITLE15=Chris Rea-On the Beach
TTITLE16=Phil Collins-Dance into the Light
TTITLE17=Mr. Big-Feelings
EXTD=
EXTT0=
EXTT1=
EXTT2=
EXTT3=
EXTT4=
EXTT5=
EXTT6=
EXTT7=
EXTT8=
EXTT9=
EXTT10=
EXTT11=
EXTT12=
EXTT13=
EXTT14=
EXTT15=
EXTT16=
EXTT17=
PLAYORDER=
